<?xml version="1.0" encoding="utf-8"?>
<!-- Generator: Adobe Illustrator 23.0.1, SVG Export Plug-In . SVG Version: 6.00 Build 0)  -->
<svg version="1.1" id="Aced_Logo_Blue" xmlns="http://www.w3.org/2000/svg" xmlns:xlink="http://www.w3.org/1999/xlink" x="0px"
	 y="0px" viewBox="0 0 1901 1163" style="enable-background:new 0 0 1901 1163;" xml:space="preserve">
<style type="text/css">
	.st0{display:none;fill-rule:evenodd;clip-rule:evenodd;fill:url(#Forme_2_copie_1_);}
	.st1{display:none;fill-rule:evenodd;clip-rule:evenodd;fill:url(#Forme_1_1_);stroke:#FFFFFF;stroke-width:2;}
	.st2{fill-rule:evenodd;clip-rule:evenodd;fill:url(#Forme_2_copie-2_1_);}
	.st3{fill-rule:evenodd;clip-rule:evenodd;fill:url(#Forme_1-2_1_);stroke:#FFFFFF;stroke-width:2;}
	.st4{opacity:0.48;fill-rule:evenodd;clip-rule:evenodd;fill:#7C0001;stroke:#FF0000;stroke-width:2;enable-background:new    ;}
	.st5{display:none;fill:#FEFEFF;enable-background:new    ;}
	.st6{font-family:'VELOCISTA';}
	.st7{font-size:197.5025px;}
	.st8{enable-background:new    ;}
	.st9{fill:#FEFEFF;stroke:#000000;stroke-width:7;stroke-miterlimit:10;}
	.st10{display:none;}
	.st11{display:inline;fill:none;stroke:#000000;stroke-width:2;stroke-miterlimit:10;}
	.st12{fill:none;stroke:#FFFFFF;stroke-width:2;stroke-miterlimit:10;}
	.st13{display:inline;}
	.st14{fill:none;stroke:#000000;stroke-width:5;stroke-miterlimit:10;}
	.st15{fill:none;stroke:#000000;stroke-width:4;stroke-miterlimit:10;}
	.st16{fill:none;stroke:#000000;stroke-width:3;stroke-miterlimit:10;}
	.st17{fill:none;stroke:#FFFFFF;stroke-width:5;stroke-miterlimit:10;}
	.st18{fill:none;stroke:#FFFFFF;stroke-width:4;stroke-miterlimit:10;}
	.st19{fill:none;stroke:#FFFFFF;stroke-width:3;stroke-miterlimit:10;}
</style>
<linearGradient id="Forme_2_copie_1_" gradientUnits="userSpaceOnUse" x1="693" y1="521" x2="693" y2="1385" gradientTransform="matrix(1 0 0 -1 0 1536)">
	<stop  offset="0" style="stop-color:#005CB5"/>
	<stop  offset="0.275" style="stop-color:#005CB5"/>
	<stop  offset="0.555" style="stop-color:#60D6FF"/>
	<stop  offset="0.678" style="stop-color:#006BCF"/>
	<stop  offset="1" style="stop-color:#006BCF"/>
</linearGradient>
<path id="Forme_2_copie" class="st0" d="M489,1015H269l108-196h-44l360-668l360,668h-40l104,196H901L789,783h36L693,535L565,783h36"
	/>
<linearGradient id="Forme_1_1_" gradientUnits="userSpaceOnUse" x1="898.4316" y1="452.6821" x2="263.5617" y2="1236.682" gradientTransform="matrix(1 0 0 -1 0 1536)">
	<stop  offset="0" style="stop-color:#001E68"/>
	<stop  offset="0.298" style="stop-color:#001E68"/>
	<stop  offset="0.516" style="stop-color:#003CD1"/>
	<stop  offset="0.82" style="stop-color:#001E68"/>
	<stop  offset="1" style="stop-color:#001E68"/>
</linearGradient>
<path id="Forme_1" class="st1" d="M457,943l-144,40l104-192h-40l316-584l312,584h-36l108,200l-144-44L833,815h40L693,483L517,815h40
	L457,943z"/>
<linearGradient id="Forme_2_copie-2_1_" gradientUnits="userSpaceOnUse" x1="693" y1="521" x2="693" y2="1385" gradientTransform="matrix(1 0 0 -1 0 1536)">
	<stop  offset="0" style="stop-color:#B91E1E"/>
	<stop  offset="0.275" style="stop-color:#B91E1E"/>
	<stop  offset="0.555" style="stop-color:#F86666"/>
	<stop  offset="0.678" style="stop-color:#AC0808"/>
	<stop  offset="1" style="stop-color:#AC0808"/>
</linearGradient>
<path id="Forme_2_copie-2" class="st2" d="M489,1015H269l108-196h-44l360-668l360,668h-40l104,196H901L789,783h36L693,535L565,783
	h36"/>
<linearGradient id="Forme_1-2_1_" gradientUnits="userSpaceOnUse" x1="898.4316" y1="452.6821" x2="263.5617" y2="1236.682" gradientTransform="matrix(1 0 0 -1 0 1536)">
	<stop  offset="0" style="stop-color:#690505"/>
	<stop  offset="0.319" style="stop-color:#690505"/>
	<stop  offset="0.515" style="stop-color:#C70A0A"/>
	<stop  offset="0.81" style="stop-color:#630505"/>
	<stop  offset="1" style="stop-color:#630505"/>
</linearGradient>
<path id="Forme_1-2" class="st3" d="M457,943l-144,40l104-192h-40l316-584l312,584h-36l108,200l-144-44L833,815h40L693,483L517,815
	h40L457,943z"/>
<path id="Rectangle_arrondi_1" class="st4" d="M612.7,782.2h837.5c5.9,0,8.6,4.5,5.9,10.1L1354,1004.8c-2.7,5.6-9.7,10.1-15.6,10.1
	H500.8c-6,0-8.6-4.5-5.9-10.1L597,792.3C599.7,786.8,606.7,782.2,612.7,782.2z"/>
<text transform="matrix(1.0028 0 -5.620000e-02 0.9984 531.5931 976.496)" class="st5 st6 st7">BETS.io</text>
<g class="st8">
	<path class="st9" d="M536.3,976.5l68.6-142h92.9c6.9,0,12.2,1.6,15.9,4.8s5.4,7.7,5.1,13.3c-0.2,3.5-1.2,7.6-3,12.1s-4,9-6.6,13.5
		s-5.5,8.5-8.7,12.2s-6.2,6.4-9.1,8.3c3.5,3.4,5.1,8.7,4.7,15.8c-0.3,6-2.1,12.7-5.2,19.8s-7.2,13.9-12.1,20.1
		c-5,6.2-10.6,11.5-16.9,15.7c-6.3,4.2-12.8,6.3-19.6,6.3L536.3,976.5L536.3,976.5z M591.8,942.2h45.3c2.8,0,5.6-1,8.5-3
		s4.9-4.3,6.1-6.9l1.6-3.2c0.8-1.7,1.2-3.2,1.2-4.3c0.2-3.8-1.9-5.7-6.2-5.7H603L591.8,942.2z M616.2,891.5h38.6c2.8,0,5.6-1,8.5-3
		s5-4.3,6.3-7.1l1.3-2.8c0.6-1,0.9-2.3,1-3.8c0.2-4.2-1.8-6.3-6.2-6.3h-38.6L616.2,891.5z"/>
	<path class="st9" d="M824.9,942.2l-16.6,34.3H689.4l68.6-142h118.8l-16.6,34.3h-80l-10.8,22.3h71.1l-13.9,28.8h-71.1l-10.8,22.3
		L824.9,942.2L824.9,942.2z"/>
	<path class="st9" d="M857,976.5l52-107.7h-47.9l16.6-34.3h134.7l-16.6,34.3h-47.9l-52,107.7H857z"/>
	<path class="st9" d="M1011.8,931.5l-4,8.1c-0.8,1.7-0.3,2.6,1.4,2.6h47.3c1.7,0,2.9-0.8,3.7-2.6l7.6-15.8c0.9-1.7,0.5-2.6-1.2-2.6
		h-56.2c-9.1,0-15.3-3.1-18.6-9.4c-3.3-6.2-2.7-13.9,1.8-23l10.5-22.1c4.3-9.1,10.5-16.7,18.5-23c8-6.2,16.6-9.4,25.7-9.4h69.1
		c9.1,0,15.3,3.1,18.5,9.4c3.2,6.2,2.7,13.9-1.7,23l-6.1,12.6h-38.8l3.8-8.1c0.9-1.7,0.5-2.6-1.2-2.6h-47.3c-1.7,0-3,0.9-3.9,2.6
		l-7.6,15.8c-0.8,1.7-0.3,2.6,1.4,2.6h56.2c9.1,0,15.3,3.1,18.6,9.4c3.3,6.2,2.7,13.9-1.8,23l-10.6,22.1c-4.5,9.1-10.5,16.7-18.1,23
		c-7.6,6.2-16,9.4-25.1,9.4h-70.1c-9.1,0-15.3-3.1-18.6-9.4c-3.3-6.2-2.7-13.9,1.8-23l6.1-12.6H1011.8z"/>
	<path class="st9" d="M1115.5,943.6h30.7l-15.9,32.9h-30.7L1115.5,943.6z"/>
	<path class="st9" d="M1204.2,874.9h36.8l-49.1,101.6h-36.8L1204.2,874.9z M1229.7,821.7h36.8L1251,854h-36.8L1229.7,821.7z"/>
	<path class="st9" d="M1242.6,976.5c-7.9,0-13.3-2.8-16.2-8.3s-2.4-12.2,1.3-20.1l21.7-44.8c3.7-7.9,8.7-14.6,15-20.1
		s13.3-8.3,21.3-8.3h56.1c7.9,0,13.3,2.8,16.2,8.3s2.4,12.2-1.3,20.1l-21.7,44.8c-3.8,7.9-8.7,14.6-15,20.1
		c-6.2,5.5-13.3,8.3-21.3,8.3H1242.6z M1317.1,908.7c1.3-2.8,0.6-4.1-2.1-4.1h-24.8c-2.8,0-4.8,1.4-6.2,4.1l-16.4,34.1
		c-1.3,2.8-0.6,4.1,2.1,4.1h24.8c2.8,0,4.8-1.4,6.2-4.1L1317.1,908.7z"/>
</g>
<g id="Circle" class="st10">
	<path class="st11" d="M80.6,1009c-12.4-14.5-22.1-30.9-28.7-48.8c-14.6-39.8-12.7-84.8,5.6-133.7c17.7-47.2,50.3-97.4,97-149.1
		c46.1-51,104.8-102.4,174.5-152.6c70.6-50.9,150.9-99.4,238.6-144.2l1,2.1C481,427.5,400.8,476,330.3,526.8
		C260.8,576.8,202.2,628,156.2,679c-46.5,51.4-78.9,101.4-96.5,148.3c-18.1,48.5-20,92.9-5.6,132.1c6.5,17.6,16,33.8,28.3,48.1
		L80.6,1009z M1443.4,824.7l-1.2-2c135.8-77.9,248.1-163.9,324.8-248.8c77.9-86.2,116.3-168.5,111.3-237.9l2.3-0.2
		c5.1,70.1-33.6,153-111.9,239.6C1691.9,660.5,1579.4,746.7,1443.4,824.7z M770,291.8l-0.8-2.1c19.8-7.9,40.2-15.6,60.5-23.1
		c75.7-27.8,153.7-52.1,231.8-72.2l0.6,2.2c-78,20-155.9,44.3-231.5,72.1C810.1,276.1,789.7,283.9,770,291.8z M1757.9,185.3
		c-38.3-17.7-85.2-30.6-139.3-38.5l0.3-2.3c54.3,7.9,101.4,20.9,139.9,38.7L1757.9,185.3z M1159.1,174.1l-0.5-2.3
		c17.4-3.6,34.8-7,51.9-10l0.4,2.3C1193.9,167.1,1176.4,170.5,1159.1,174.1z M1374.9,142.4l-0.2-2.3c12.3-1,24.5-1.9,36.5-2.5
		l0.1,2.3C1399.4,140.5,1387.2,141.3,1374.9,142.4z"/>
	<path class="st11" d="M190.9,1040.8c-36.3-11.2-66.6-26.2-90-44.3c-24.2-18.8-41.2-41.1-50.5-66.3c-13.5-36.4-10.8-77.8,7.8-123.1
		c18-43.6,50.4-89.7,96.3-137.2c92-95,234.6-190.2,401.6-268.3l1,2.1c-166.8,78-309.1,173.1-400.9,267.8
		c-45.8,47.2-78,93.1-95.9,136.5c-18.4,44.7-21.1,85.5-7.8,121.4c9.2,24.8,25.9,46.8,49.8,65.3c23.2,18,53.3,32.8,89.3,44
		L190.9,1040.8z M1315.2,782.9l-1.2-2c37.2-23,72.4-46.8,104.5-71l1.4,1.8C1387.8,736,1352.5,759.9,1315.2,782.9z M781.6,314.2
		l-0.7-2.2c97.7-32.8,194.8-57.6,288.4-73.8l0.4,2.3C976.2,256.6,879.2,281.4,781.6,314.2z M1168.8,226.5l-0.2-2.3
		c17.7-1.9,35.2-3.4,52.2-4.6l0.2,2.3C1204,223.1,1186.4,224.6,1168.8,226.5z M1403.3,225.1c-10.5-1.3-21.4-2.4-32.4-3.3l0.2-2.3
		c11,0.9,22,2,32.5,3.3L1403.3,225.1z"/>
</g>
<g id="Circle_white">
	<path class="st12" d="M80.6,1009c-12.4-14.5-22.1-30.9-28.7-48.8c-14.6-39.8-12.7-84.8,5.6-133.7c17.7-47.2,50.3-97.4,97-149.1
		c46.1-51,104.8-102.4,174.5-152.6c70.6-50.9,150.9-99.4,238.6-144.2l1,2.1C481,427.5,400.8,476,330.3,526.8
		C260.8,576.8,202.2,628,156.2,679c-46.5,51.4-78.9,101.4-96.5,148.3c-18.1,48.5-20,92.9-5.6,132.1c6.5,17.6,16,33.8,28.3,48.1
		L80.6,1009z M1443.4,824.7l-1.2-2c135.8-77.9,248.1-163.9,324.8-248.8c77.9-86.2,116.3-168.5,111.3-237.9l2.3-0.2
		c5.1,70.1-33.6,153-111.9,239.6C1691.9,660.5,1579.4,746.7,1443.4,824.7z M770,291.8l-0.8-2.1c19.8-7.9,40.2-15.6,60.5-23.1
		c75.7-27.8,153.7-52.1,231.8-72.2l0.6,2.2c-78,20-155.9,44.3-231.5,72.1C810.1,276.1,789.7,283.9,770,291.8z M1757.9,185.3
		c-38.3-17.7-85.2-30.6-139.3-38.5l0.3-2.3c54.3,7.9,101.4,20.9,139.9,38.7L1757.9,185.3z M1159.1,174.1l-0.5-2.3
		c17.4-3.6,34.8-7,51.9-10l0.4,2.3C1193.9,167.1,1176.4,170.5,1159.1,174.1z M1374.9,142.4l-0.2-2.3c12.3-1,24.5-1.9,36.5-2.5
		l0.1,2.3C1399.4,140.5,1387.2,141.3,1374.9,142.4z"/>
	<path class="st12" d="M190.9,1040.8c-36.3-11.2-66.6-26.2-90-44.3c-24.2-18.8-41.2-41.1-50.5-66.3c-13.5-36.4-10.8-77.8,7.8-123.1
		c18-43.6,50.4-89.7,96.3-137.2c92-95,234.6-190.2,401.6-268.3l1,2.1c-166.8,78-309.1,173.1-400.9,267.8
		c-45.8,47.2-78,93.1-95.9,136.5c-18.4,44.7-21.1,85.5-7.8,121.4c9.2,24.8,25.9,46.8,49.8,65.3c23.2,18,53.3,32.8,89.3,44
		L190.9,1040.8z M1315.2,782.9l-1.2-2c37.2-23,72.4-46.8,104.5-71l1.4,1.8C1387.8,736,1352.5,759.9,1315.2,782.9z M781.6,314.2
		l-0.7-2.2c97.7-32.8,194.8-57.6,288.4-73.8l0.4,2.3C976.2,256.6,879.2,281.4,781.6,314.2z M1168.8,226.5l-0.2-2.3
		c17.7-1.9,35.2-3.4,52.2-4.6l0.2,2.3C1204,223.1,1186.4,224.6,1168.8,226.5z M1403.3,225.1c-10.5-1.3-21.4-2.4-32.4-3.3l0.2-2.3
		c11,0.9,22,2,32.5,3.3L1403.3,225.1z"/>
</g>
<g id="Balls_black" class="st10">
	<g id="Balls" class="st13">
	</g>
	<g class="st13">
		<g>
			<path class="st14" d="M1638.6,445.4c31.6,31.6,48.3,72.5,50,113.9c1.9,46.2-14.7,93-50,128.3s-82.1,51.9-128.3,50
				c-41.4-1.7-82.3-18.4-113.9-50s-48.3-72.5-50-113.9c-1.9-46.2,14.7-93,50-128.3s82.1-52,128.3-50
				C1566.1,397.1,1607,413.8,1638.6,445.4z"/>
			<g>
				<g>
					<g>
						<g>
							<path class="st14" d="M1351,570.2c10.1-2.6,20-6.1,29.5-10.3s18.7-9.2,27.6-14.7c17.7-11,34-24.2,48.8-38.9
								c14.7-14.8,27.9-31.1,39-48.8c5.5-8.9,10.5-18,14.7-27.6c4.2-9.5,7.8-19.4,10.4-29.5"/>
							<g>
								<line class="st14" x1="1347" y1="553.3" x2="1355.6" y2="586.9"/>
								<line class="st14" x1="1360.5" y1="549.2" x2="1372.1" y2="581.9"/>
								<line class="st14" x1="1373.7" y1="543.9" x2="1387.8" y2="575.6"/>
								<line class="st14" x1="1386.6" y1="537.5" x2="1403" y2="568.1"/>
								<line class="st14" x1="1399.1" y1="530.3" x2="1417.5" y2="559.7"/>
								<line class="st14" x1="1411.3" y1="522.2" x2="1431.4" y2="550.5"/>
								<line class="st14" x1="1422.9" y1="513.4" x2="1444.6" y2="540.5"/>
								<line class="st14" x1="1434.1" y1="503.9" x2="1457.3" y2="529.7"/>
								<line class="st14" x1="1444.8" y1="493.8" x2="1469.3" y2="518.3"/>
								<line class="st14" x1="1454.9" y1="483.1" x2="1480.7" y2="506.3"/>
								<line class="st14" x1="1464.4" y1="471.9" x2="1491.4" y2="493.6"/>
								<line class="st14" x1="1473.2" y1="460.3" x2="1501.5" y2="480.4"/>
								<line class="st14" x1="1481.3" y1="448.1" x2="1510.7" y2="466.5"/>
								<line class="st14" x1="1488.5" y1="435.6" x2="1519.1" y2="452"/>
								<line class="st14" x1="1494.9" y1="422.7" x2="1526.6" y2="436.9"/>
								<line class="st14" x1="1500.2" y1="409.5" x2="1532.9" y2="421.1"/>
								<line class="st14" x1="1504.3" y1="396" x2="1537.9" y2="404.6"/>
							</g>
						</g>
					</g>
				</g>
			</g>
			<g>
				<g>
					<g>
						<g>
							<path class="st14" d="M1512.8,732.9c2.5-10.2,6.1-20.1,10.3-29.7c4.2-9.6,9.2-18.9,14.7-27.8c11.1-17.8,24.3-34.3,39.2-49.2
								c14.9-14.8,31.3-28.1,49.1-39.2c8.9-5.5,18.2-10.5,27.8-14.8c9.6-4.2,19.5-7.8,29.7-10.3"/>
							<g>
								<line class="st14" x1="1496" y1="728.5" x2="1529.7" y2="736.8"/>
								<line class="st14" x1="1501" y1="711.8" x2="1533.8" y2="723.3"/>
								<line class="st14" x1="1507.3" y1="695.9" x2="1539.1" y2="710"/>
								<line class="st14" x1="1514.8" y1="680.7" x2="1545.4" y2="697"/>
								<line class="st14" x1="1523.2" y1="666" x2="1552.7" y2="684.3"/>
								<line class="st14" x1="1532.5" y1="652" x2="1560.8" y2="672.1"/>
								<line class="st14" x1="1542.6" y1="638.7" x2="1569.7" y2="660.4"/>
								<line class="st14" x1="1553.4" y1="625.9" x2="1579.2" y2="649.1"/>
								<line class="st14" x1="1564.8" y1="613.8" x2="1589.4" y2="638.4"/>
								<line class="st14" x1="1576.9" y1="602.4" x2="1600.1" y2="628.2"/>
								<line class="st14" x1="1589.7" y1="591.6" x2="1611.4" y2="618.7"/>
								<line class="st14" x1="1603.1" y1="581.5" x2="1623.1" y2="609.8"/>
								<line class="st14" x1="1617" y1="572.2" x2="1635.3" y2="601.7"/>
								<line class="st14" x1="1631.7" y1="563.8" x2="1648" y2="594.4"/>
								<line class="st14" x1="1646.9" y1="556.3" x2="1661" y2="588.1"/>
								<line class="st14" x1="1662.8" y1="550" x2="1674.3" y2="582.8"/>
								<line class="st14" x1="1679.4" y1="545" x2="1687.8" y2="578.7"/>
							</g>
						</g>
					</g>
				</g>
			</g>
		</g>
	</g>
	<g class="st13">
		<g>
			<circle class="st14" cx="1728.5" cy="331.5" r="149.6"/>
			<path class="st14" d="M1710.9,182.9c-37,82.8,17.6,148.6,17.6,148.6s102.6-9.8,132,70.4"/>
			<path class="st14" d="M1607.3,419.2c0,0,84.7,5.6,121.2-87.7"/>
			<path class="st14" d="M1698,225.5c0,0,87.1-17.2,154.1,21.7"/>
			<path class="st14" d="M1703.2,279.5c0,0,117.5-31.3,175,52"/>
			<path class="st14" d="M1786.7,338.6c0,0-22.7,93.3-118.8,129.7"/>
			<path class="st14" d="M1834.2,362.6c0,0-19.7,66.3-80.7,116.5"/>
			<path class="st14" d="M1639.4,211.3c0,0-15.1,109.1,57.2,170.9"/>
			<path class="st14" d="M1590.4,273.8c0,0,1.4,66.7,63.2,136.8"/>
		</g>
	</g>
	<g class="st13">
		<g>
			<circle class="st15" cx="1512.5" cy="190.5" r="114.6"/>
			<path class="st15" d="M1512.5,75.9c0,0-30.6,66.7,3.2,114.6s95.4,58.4,95.4,58.4"/>
			<path class="st15" d="M1399.8,169.7c0,0,32.8,3.3,59.2,50c26.3,46.7,13.2,78.1,13.2,78.1"/>
		</g>
	</g>
	<g class="st13">
		<g>
			<path class="st16" d="M1338.5,104.3c0.5,0.3,1,0.6,1.4,0.9c15.1,9.1,26.4,22.2,33.4,37.1c8.1,17.3,10.3,37,5.9,56
				c-1.9,8-4.9,15.9-9.3,23.4c-4.3,7.5-9.6,14.1-15.7,19.8c-14.2,13.3-32.5,21.3-51.5,22.9c-16.4,1.4-33.4-1.9-48.8-10.4
				c-0.5-0.3-1-0.5-1.5-0.8c-16.9-9.7-29.2-24.3-36.2-41c-6.5-15.5-8.5-32.8-5.2-49.6c1.8-9.2,5.1-18.2,10-26.8
				c4.9-8.5,11.1-15.9,18.2-22c13-11.2,28.9-18.2,45.6-20.3C1302.8,91.2,1321.6,94.6,1338.5,104.3z"/>
			<polygon class="st16" points="1269.2,163.6 1273.3,201.9 1310.9,209.9 1330.1,176.5 1304.4,147.9 			"/>
			<path class="st16" d="M1239.3,113.8l3.6,34.6l-31.8,14.2c1.8-9.2,5.1-18.2,10-26.8C1226,127.2,1232.2,119.9,1239.3,113.8z"/>
			<path class="st16" d="M1250.4,219.4l3.6,34.6c-0.5-0.3-1-0.5-1.5-0.8c-16.9-9.7-29.2-24.3-36.2-41L1250.4,219.4z"/>
			<path class="st16" d="M1354.2,241.5c-14.2,13.3-32.5,21.3-51.5,22.9l17.4-30.1L1354.2,241.5z"/>
			<path class="st16" d="M1373.3,142.3c8.1,17.3,10.3,37,5.9,56l-23.3-25.9L1373.3,142.3z"/>
			<path class="st16" d="M1338.5,104.3c0.5,0.3,1,0.6,1.4,0.9l-31.8,14.2l-23.3-25.9C1302.8,91.2,1321.6,94.6,1338.5,104.3z"/>
			<line class="st16" x1="1240" y1="146.7" x2="1272" y2="165.2"/>
			<line class="st16" x1="1310.9" y1="209.9" x2="1320.2" y2="234.2"/>
			<line class="st16" x1="1250.4" y1="219.4" x2="1273.3" y2="201.9"/>
			<line class="st16" x1="1330.2" y1="176.4" x2="1355.9" y2="172.3"/>
			<line class="st16" x1="1308.2" y1="119.2" x2="1304.5" y2="147.8"/>
		</g>
	</g>
	<g class="st13">
		<g>
			<circle class="st16" cx="1117" cy="209.9" r="55.9"/>
			<path class="st16" d="M1128.4,155.2c0,0,13.4,13.3,15.2,33.4s5.5,58.2-22.5,77"/>
			<path class="st16" d="M1075.9,172c0,0,7.7-10.2,32.2-3.3c24.6,6.9,35.9,11.4,48.7,2"/>
			<path class="st16" d="M1079.3,251.1c0,0,9.4,0.4,33.5-26c0,0,16.7-21.2,32-21.6c15.3-0.4,23.2,13.3,22.6,30.5"/>
			<path class="st16" d="M1061.6,216.7c0,0-2.6-7.2,24.4-17.7s74.1-12.8,84.4-5.5"/>
		</g>
	</g>
</g>
<g id="Balls_White">
	<g>
		<g>
			<path class="st17" d="M1638.6,445.4c31.6,31.6,48.3,72.5,50,113.9c1.9,46.2-14.7,93-50,128.3s-82.1,51.9-128.3,50
				c-41.4-1.7-82.3-18.4-113.9-50s-48.3-72.5-50-113.9c-1.9-46.2,14.7-93,50-128.3s82.1-52,128.3-50
				C1566.1,397.1,1607,413.8,1638.6,445.4z"/>
			<g>
				<g>
					<g>
						<g>
							<path class="st17" d="M1351,570.2c10.1-2.6,20-6.1,29.5-10.3s18.7-9.2,27.6-14.7c17.7-11,34-24.2,48.8-38.9
								c14.7-14.8,27.9-31.1,39-48.8c5.5-8.9,10.5-18,14.7-27.6c4.2-9.5,7.8-19.4,10.4-29.5"/>
							<g>
								<line class="st17" x1="1347" y1="553.3" x2="1355.6" y2="586.9"/>
								<line class="st17" x1="1360.5" y1="549.2" x2="1372.1" y2="581.9"/>
								<line class="st17" x1="1373.7" y1="543.9" x2="1387.8" y2="575.6"/>
								<line class="st17" x1="1386.6" y1="537.5" x2="1403" y2="568.1"/>
								<line class="st17" x1="1399.1" y1="530.3" x2="1417.5" y2="559.7"/>
								<line class="st17" x1="1411.3" y1="522.2" x2="1431.4" y2="550.5"/>
								<line class="st17" x1="1422.9" y1="513.4" x2="1444.6" y2="540.5"/>
								<line class="st17" x1="1434.1" y1="503.9" x2="1457.3" y2="529.7"/>
								<line class="st17" x1="1444.8" y1="493.8" x2="1469.3" y2="518.3"/>
								<line class="st17" x1="1454.9" y1="483.1" x2="1480.7" y2="506.3"/>
								<line class="st17" x1="1464.4" y1="471.9" x2="1491.4" y2="493.6"/>
								<line class="st17" x1="1473.2" y1="460.3" x2="1501.5" y2="480.4"/>
								<line class="st17" x1="1481.3" y1="448.1" x2="1510.7" y2="466.5"/>
								<line class="st17" x1="1488.5" y1="435.6" x2="1519.1" y2="452"/>
								<line class="st17" x1="1494.9" y1="422.7" x2="1526.6" y2="436.9"/>
								<line class="st17" x1="1500.2" y1="409.5" x2="1532.9" y2="421.1"/>
								<line class="st17" x1="1504.3" y1="396" x2="1537.9" y2="404.6"/>
							</g>
						</g>
					</g>
				</g>
			</g>
			<g>
				<g>
					<g>
						<g>
							<path class="st17" d="M1512.8,732.9c2.5-10.2,6.1-20.1,10.3-29.7c4.2-9.6,9.2-18.9,14.7-27.8c11.1-17.8,24.3-34.3,39.2-49.2
								c14.9-14.8,31.3-28.1,49.1-39.2c8.9-5.5,18.2-10.5,27.8-14.8c9.6-4.2,19.5-7.8,29.7-10.3"/>
							<g>
								<line class="st17" x1="1496" y1="728.5" x2="1529.7" y2="736.8"/>
								<line class="st17" x1="1501" y1="711.8" x2="1533.8" y2="723.3"/>
								<line class="st17" x1="1507.3" y1="695.9" x2="1539.1" y2="710"/>
								<line class="st17" x1="1514.8" y1="680.7" x2="1545.4" y2="697"/>
								<line class="st17" x1="1523.2" y1="666" x2="1552.7" y2="684.3"/>
								<line class="st17" x1="1532.5" y1="652" x2="1560.8" y2="672.1"/>
								<line class="st17" x1="1542.6" y1="638.7" x2="1569.7" y2="660.4"/>
								<line class="st17" x1="1553.4" y1="625.9" x2="1579.2" y2="649.1"/>
								<line class="st17" x1="1564.8" y1="613.8" x2="1589.4" y2="638.4"/>
								<line class="st17" x1="1576.9" y1="602.4" x2="1600.1" y2="628.2"/>
								<line class="st17" x1="1589.7" y1="591.6" x2="1611.4" y2="618.7"/>
								<line class="st17" x1="1603.1" y1="581.5" x2="1623.1" y2="609.8"/>
								<line class="st17" x1="1617" y1="572.2" x2="1635.3" y2="601.7"/>
								<line class="st17" x1="1631.7" y1="563.8" x2="1648" y2="594.4"/>
								<line class="st17" x1="1646.9" y1="556.3" x2="1661" y2="588.1"/>
								<line class="st17" x1="1662.8" y1="550" x2="1674.3" y2="582.8"/>
								<line class="st17" x1="1679.4" y1="545" x2="1687.8" y2="578.7"/>
							</g>
						</g>
					</g>
				</g>
			</g>
		</g>
	</g>
	<g>
		<g>
			<circle class="st17" cx="1728.5" cy="331.5" r="149.6"/>
			<path class="st17" d="M1710.9,182.9c-37,82.8,17.6,148.6,17.6,148.6s102.6-9.8,132,70.4"/>
			<path class="st17" d="M1607.3,419.2c0,0,84.7,5.6,121.2-87.7"/>
			<path class="st17" d="M1698,225.5c0,0,87.1-17.2,154.1,21.7"/>
			<path class="st17" d="M1703.2,279.5c0,0,117.5-31.3,175,52"/>
			<path class="st17" d="M1786.7,338.6c0,0-22.7,93.3-118.8,129.7"/>
			<path class="st17" d="M1834.2,362.6c0,0-19.7,66.3-80.7,116.5"/>
			<path class="st17" d="M1639.4,211.3c0,0-15.1,109.1,57.2,170.9"/>
			<path class="st17" d="M1590.4,273.8c0,0,1.4,66.7,63.2,136.8"/>
		</g>
	</g>
	<g>
		<g>
			<circle class="st18" cx="1512.5" cy="190.5" r="114.6"/>
			<path class="st18" d="M1512.5,75.9c0,0-30.6,66.7,3.2,114.6s95.4,58.4,95.4,58.4"/>
			<path class="st18" d="M1399.8,169.7c0,0,32.8,3.3,59.2,50c26.3,46.7,13.2,78.1,13.2,78.1"/>
		</g>
	</g>
	<g>
		<g>
			<path class="st19" d="M1338.5,104.3c0.5,0.3,1,0.6,1.4,0.9c15.1,9.1,26.4,22.2,33.4,37.1c8.1,17.3,10.3,37,5.9,56
				c-1.9,8-4.9,15.9-9.3,23.4c-4.3,7.5-9.6,14.1-15.7,19.8c-14.2,13.3-32.5,21.3-51.5,22.9c-16.4,1.4-33.4-1.9-48.8-10.4
				c-0.5-0.3-1-0.5-1.5-0.8c-16.9-9.7-29.2-24.3-36.2-41c-6.5-15.5-8.5-32.8-5.2-49.6c1.8-9.2,5.1-18.2,10-26.8
				c4.9-8.5,11.1-15.9,18.2-22c13-11.2,28.9-18.2,45.6-20.3C1302.8,91.2,1321.6,94.6,1338.5,104.3z"/>
			<polygon class="st19" points="1269.2,163.6 1273.3,201.9 1310.9,209.9 1330.1,176.5 1304.4,147.9 			"/>
			<path class="st19" d="M1239.3,113.8l3.6,34.6l-31.8,14.2c1.8-9.2,5.1-18.2,10-26.8C1226,127.2,1232.2,119.9,1239.3,113.8z"/>
			<path class="st19" d="M1250.4,219.4l3.6,34.6c-0.5-0.3-1-0.5-1.5-0.8c-16.9-9.7-29.2-24.3-36.2-41L1250.4,219.4z"/>
			<path class="st19" d="M1354.2,241.5c-14.2,13.3-32.5,21.3-51.5,22.9l17.4-30.1L1354.2,241.5z"/>
			<path class="st19" d="M1373.3,142.3c8.1,17.3,10.3,37,5.9,56l-23.3-25.9L1373.3,142.3z"/>
			<path class="st19" d="M1338.5,104.3c0.5,0.3,1,0.6,1.4,0.9l-31.8,14.2l-23.3-25.9C1302.8,91.2,1321.6,94.6,1338.5,104.3z"/>
			<line class="st19" x1="1240" y1="146.7" x2="1272" y2="165.2"/>
			<line class="st19" x1="1310.9" y1="209.9" x2="1320.2" y2="234.2"/>
			<line class="st19" x1="1250.4" y1="219.4" x2="1273.3" y2="201.9"/>
			<line class="st19" x1="1330.2" y1="176.4" x2="1355.9" y2="172.3"/>
			<line class="st19" x1="1308.2" y1="119.2" x2="1304.5" y2="147.8"/>
		</g>
	</g>
	<g>
		<g>
			<circle class="st19" cx="1117" cy="209.9" r="55.9"/>
			<path class="st19" d="M1128.4,155.2c0,0,13.4,13.3,15.2,33.4s5.5,58.2-22.5,77"/>
			<path class="st19" d="M1075.9,172c0,0,7.7-10.2,32.2-3.3c24.6,6.9,35.9,11.4,48.7,2"/>
			<path class="st19" d="M1079.3,251.1c0,0,9.4,0.4,33.5-26c0,0,16.7-21.2,32-21.6c15.3-0.4,23.2,13.3,22.6,30.5"/>
			<path class="st19" d="M1061.6,216.7c0,0-2.6-7.2,24.4-17.7s74.1-12.8,84.4-5.5"/>
		</g>
	</g>
</g>
</svg>
